<svg width="75" height="75" viewBox="0 0 75 75" fill="none" xmlns="http://www.w3.org/2000/svg">
<circle cx="37.5" cy="37.5" r="37.5" fill="black" fill-opacity="0.12"/>
<circle cx="37.5" cy="38" r="7" fill="#304FFE"/>
<path fill-rule="evenodd" clip-rule="evenodd" d="M31.2548 30.676C33.068 28.8628 35.4787 27.8535 38.043 27.8535C40.6072 27.8535 43.0179 28.8681 44.8311 30.6813C45.9816 31.8318 46.8035 33.2143 47.251 34.7571H54.4573V25.0714C54.4573 22.7991 52.701 21.0428 50.4287 21.0428H25.743C23.4707 21.0428 21.543 22.7991 21.543 25.0714V34.7571H28.8349C29.2825 33.2143 30.1044 31.8265 31.2548 30.676ZM51.7144 28.1743C51.7144 28.7802 51.2233 29.2714 50.6173 29.2714H47.3258C46.7199 29.2714 46.2287 28.7803 46.2287 28.1743V24.8828C46.2287 24.2769 46.7198 23.7857 47.3258 23.7857H50.6173C51.2232 23.7857 51.7144 24.2768 51.7144 24.8828V28.1743Z" fill="#304FFE"/>
<path fill-rule="evenodd" clip-rule="evenodd" d="M44.8311 44.2525C43.0179 46.0657 40.6072 47.0535 38.043 47.0535C35.4787 47.0535 33.068 46.0711 31.2548 44.2579C29.445 42.448 28.4469 39.9857 28.4431 37.5H21.543V49.7571C21.543 52.0294 23.4707 53.9571 25.743 53.9571H50.4287C52.701 53.9571 54.4573 52.0294 54.4573 49.7571V37.5H47.6428C47.6391 39.9857 46.6411 42.4426 44.8311 44.2525Z" fill="#304FFE"/>
</svg>
