<svg width="32" height="32" viewBox="0 0 32 32" fill="none" xmlns="http://www.w3.org/2000/svg">
<g filter="url(#filter0_d_54_65)">
<path d="M19 22.9049C16.9817 23.0325 14.9957 23.0317 13 22.9024V22.8985V22.8841V22.8697V22.8551V22.8404V22.8257V22.8109V22.7959V22.7809V22.7659V22.7507V22.7355V22.7201V22.7047V22.6892V22.6737V22.658V22.6423V22.6265V22.6106V22.5947V22.5786V22.5625V22.5463V22.5301V22.5137V22.4973V22.4809V22.4643V22.4477V22.431V22.4142V22.3974V22.3805V22.3635V22.3464V22.3293V22.3121V22.2949V22.2776V22.2602V22.2428V22.2252V22.2077V22.19V22.1723V22.1546V22.1367V22.1189V22.1009V22.0829V22.0648V22.0467V22.0285V22.0103V21.992V21.9736V21.9552V21.9367V21.9182V21.8996V21.881V21.8623V21.8435V21.8247V21.8059V21.787V21.768V21.749V21.73V21.7109V21.6917V21.6725V21.6533V21.634V21.6147V21.5953V21.5759V21.5564V21.5369V21.5173V21.4977V21.4781V21.4584V21.4386V21.4189V21.399V21.3792V21.3593V21.3394V21.3194V21.2994V21.2794V21.2593V21.2392V21.219V21.1988V21.1786V21.1584V21.1381V21.1178V21.0974V21.077V21.0566V21.0362V21.0157V20.9952V20.9747V20.9541V20.9335V20.9129V20.8923V20.8716V20.8509V20.8302V20.8094V20.7887V20.7679V20.7471V20.7262V20.7054V20.6845V20.6636V20.6427V20.6218V20.6008V20.5798V20.5589V20.5379V20.5168V20.4958V20.4747V20.4537V20.4326V20.4115V20.3904V20.3693V20.3481V20.327V20.3058V20.2847V20.2635V20.2423V20.2211V20.1999V20.1787V20.1575V20.1362V20.115V20.0938V20.0725V20.0513V20.0301V20.0088V19.9876V19.9663V19.945V19.9238V19.9025V19.8813V19.86V19.8388V19.8175V19.7962V19.775V19.7538V19.7325V19.7113V19.69V19.6688V19.6476V19.6264V19.6052V19.584V19.5628V19.5416V19.5205V19.4993V19.4781V19.457V19.4359V19.4148V19.3937V19.3726V19.3515V19.3305V19.3094V19.2884V19.2674V19.2464V19.2254V19.2044V19.1835V19.1626V19.1417V19.1208V19.0999V19.0791V19.0583V19.0375V19.0167V18.996V18.9753V18.9546V18.9339V18.9132V18.8926V18.872V18.8514V18.8309V18.8104V18.7899V18.7695V18.749V18.7287V18.7083V18.688V18.6677V18.6474V18.6272V18.607V18.5868V18.5667V18.5466V18.5266V18.5065V18.4866V18.4666V18.4467V18.4268V18.407V18.3872V18.3675V18.3478V18.3281V18.3085V18.2889V18.2694V18.2499V18.2305V18.2111V18.1917V18.1724V18.1532V18.134V18.1148V18.0957V18.0766V18.0576V18.0386V18.0197V18.0009V17.9821V17.9633V17.9446V17.9259V17.9073V17.8888V17.8703V17.8519V17.8335V17.8152V17.7969V17.7787V17.7606V17.7425V17.7245V17.7065V17.6886V17.6707V17.653V17.6352V17.6176V17.6V17.5825V17.565V17.5476V17.5303V17.513V17.4958V17.4786V17.4616V17.4446V17.4277V17.4108V17.394V17.3773V17.3606V17.3441V17.3276V17.3111V17.2948V17.2785V17.2623V17.2462V17.2301V17.2141V17.1982V17.1824V17.1667V17.151V17.1354V17.1199V17.1045V17.0891V17.0738V17.0587V17.0436V17.0285V17.0136V16.9987V16.984V16.9693V16.9547V16.9402V16.9258V16.9114V16.8972V16.883V16.8689V16.855V16.8411V16.8273V16.8136V16.7999V16.7864V16.773V16.7596V16.7464V16.7333V16.7202V16.7072V16.6944V16.6816V16.6689V16.6564V16.6439V16.6315V16.6193V16.6071V16.595V16.583V16.5712V16.5594V16.5477V16.5362V16.5247V16.5134V16.5021V16.491V16.48V16.469V16.4582V16.4475V16.4369V16.4264V16.416V16.4057V16.3956V16.3855V16.3756V16.3658V16.356V16.3464V16.337V16.3276V16.3183V16.3092V16.3002V16.2912V16.2825V16.2738V16.2652V16.2568V16.2485V16.2403V16.2322V16.2242V16.2164V16.2087V16.2011V16.1937V16.1863V16.1791V16.172V16.1651V16.1582V16.1515V16.1449V16.1385V16.1321V16.1259V16.1199V16.1139C13 15.9373 13.0981 15.6775 13.3329 15.4422C13.5678 15.2069 13.826 15.1095 14 15.1095H14.0059H14.0118H14.0177H14.0236H14.0296H14.0356H14.0416H14.0476H14.0536H14.0597H14.0658H14.0719H14.0781H14.0842H14.0904H14.0966H14.1028H14.1091H14.1154H14.1216H14.128H14.1343H14.1406H14.147H14.1534H14.1598H14.1662H14.1727H14.1792H14.1857H14.1922H14.1987H14.2053H14.2119H14.2185H14.2251H14.2317H14.2384H14.245H14.2517H14.2584H14.2652H14.2719H14.2787H14.2855H14.2923H14.2991H14.306H14.3128H14.3197H14.3266H14.3335H14.3405H14.3474H14.3544H14.3614H14.3684H14.3754H14.3825H14.3895H14.3966H14.4037H14.4108H14.418H14.4251H14.4323H14.4395H14.4467H14.4539H14.4611H14.4684H14.4756H14.4829H14.4902H14.4975H14.5049H14.5122H14.5196H14.527H14.5344H14.5418H14.5492H14.5566H14.5641H14.5716H14.5791H14.5866H14.5941H14.6016H14.6092H14.6167H14.6243H14.6319H14.6395H14.6471H14.6548H14.6624H14.6701H14.6778H14.6855H14.6932H14.7009H14.7086H14.7164H14.7242H14.7319H14.7397H14.7475H14.7553H14.7632H14.771H14.7789H14.7867H14.7946H14.8025H14.8104H14.8183H14.8263H14.8342H14.8422H14.8501H14.8581H14.8661H14.8741H14.8821H14.8902H14.8982H14.9062H14.9143H14.9224H14.9305H14.9386H14.9467H14.9548H14.9629H14.9711H14.9792H14.9874H14.9955H15.0037H15.0119H15.0201H15.0283H15.0366H15.0448H15.053H15.0613H15.0695H15.0778H15.0861H15.0944H15.1027H15.111H15.1193H15.1277H15.136H15.1443H15.1527H15.1611H15.1694H15.1778H15.1862H15.1946H15.203H15.2114H15.2198H15.2283H15.2367H15.2452H15.2536H15.2621H15.2705H15.279H15.2875H15.296H15.3045H15.313H15.3215H15.33H15.3386H15.3471H15.3556H15.3642H15.3727H15.3813H15.3899H15.3984H15.407H15.4156H15.4242H15.4328H15.4414H15.45H15.4586H15.4672H15.4759H15.4845H15.4931H15.5018H15.5104H15.5191H15.5277H15.5364H15.5451H15.5537H15.5624H15.5711H15.5798H15.5885H15.5971H15.6058H15.6145H15.6232H15.632H15.6407H15.6494H15.6581H15.6668H15.6756H15.6843H15.693H15.7018H15.7105H15.7192H15.728H15.7367H15.7455H15.7542H15.763H15.7717H15.7805H15.7893H15.798H15.8068H15.8156H15.8243H15.8331H15.8419H15.8507H15.8594H15.8682H15.877H15.8858H15.8946H15.9033H15.9121H15.9209H15.9297H15.9385H15.9473H15.9561H15.9648H15.9736H15.9824H15.9912H16H16.0088H16.0176H16.0264H16.0351H16.0439H16.0527H16.0615H16.0703H16.0791H16.0879H16.0967H16.1054H16.1142H16.123H16.1318H16.1406H16.1493H16.1581H16.1669H16.1757H16.1844H16.1932H16.202H16.2107H16.2195H16.2282H16.237H16.2458H16.2545H16.2633H16.272H16.2808H16.2895H16.2982H16.307H16.3157H16.3244H16.3332H16.3419H16.3506H16.3593H16.368H16.3767H16.3854H16.3941H16.4028H16.4115H16.4202H16.4289H16.4376H16.4463H16.4549H16.4636H16.4723H16.4809H16.4896H16.4982H16.5069H16.5155H16.5241H16.5327H16.5414H16.55H16.5586H16.5672H16.5758H16.5844H16.593H16.6015H16.6101H16.6187H16.6272H16.6358H16.6443H16.6529H16.6614H16.6699H16.6785H16.687H16.6955H16.704H16.7125H16.721H16.7294H16.7379H16.7464H16.7548H16.7633H16.7717H16.7801H16.7886H16.797H16.8054H16.8138H16.8222H16.8306H16.8389H16.8473H16.8557H16.864H16.8723H16.8807H16.889H16.8973H16.9056H16.9139H16.9222H16.9304H16.9387H16.947H16.9552H16.9634H16.9717H16.9799H16.9881H16.9963H17.0044H17.0126H17.0208H17.0289H17.0371H17.0452H17.0533H17.0614H17.0695H17.0776H17.0857H17.0937H17.1018H17.1098H17.1179H17.1259H17.1339H17.1419H17.1499H17.1578H17.1658H17.1737H17.1817H17.1896H17.1975H17.2054H17.2133H17.2211H17.229H17.2368H17.2447H17.2525H17.2603H17.2681H17.2758H17.2836H17.2914H17.2991H17.3068H17.3145H17.3222H17.3299H17.3376H17.3452H17.3528H17.3605H17.3681H17.3757H17.3833H17.3908H17.3984H17.4059H17.4134H17.4209H17.4284H17.4359H17.4433H17.4508H17.4582H17.4656H17.473H17.4804H17.4878H17.4951H17.5025H17.5098H17.5171H17.5244H17.5316H17.5389H17.5461H17.5533H17.5605H17.5677H17.5749H17.582H17.5892H17.5963H17.6034H17.6105H17.6175H17.6246H17.6316H17.6386H17.6456H17.6526H17.6595H17.6665H17.6734H17.6803H17.6872H17.694H17.7009H17.7077H17.7145H17.7213H17.7281H17.7348H17.7415H17.7483H17.755H17.7616H17.7683H17.7749H17.7815H17.7881H17.7947H17.8013H17.8078H17.8143H17.8208H17.8273H17.8337H17.8402H17.8466H17.853H17.8594H17.8657H17.872H17.8783H17.8846H17.8909H17.8972H17.9034H17.9096H17.9158H17.9219H17.9281H17.9342H17.9403H17.9463H17.9524H17.9584H17.9644H17.9704H17.9764H17.9823H17.9882H17.9941H18C18.174 15.1095 18.4322 15.2069 18.6671 15.4422C18.9019 15.6775 19 15.9373 19 16.1139V20.3502V20.3713V20.3925V20.4136V20.4347V20.4558V20.4769V20.498V20.519V20.54V20.5611V20.5821V20.603V20.624V20.6449V20.6659V20.6868V21.0182V21.6561V22.7694V22.9049ZM11 22.7201V22.7305C10.6681 22.695 10.3356 22.656 10.0021 22.6135C8.54036 22.427 7.60663 22.0692 6.98443 21.5644C6.38303 21.0765 5.96249 20.361 5.71205 19.2165C4.73198 14.7378 4.97972 10.7505 5.19878 9.21903C5.22156 9.18083 5.26188 9.12096 5.3271 9.03762C5.47501 8.84861 5.70084 8.60214 6.00458 8.30278C6.60899 7.7071 7.44945 6.97258 8.4089 6.17899C10.3233 4.59548 12.6444 2.83178 14.3366 1.57188C15.3568 0.812318 16.7404 0.80911 17.7633 1.5639C19.4695 2.82291 21.8111 4.58864 23.7304 6.17389C24.6926 6.96861 25.53 7.70271 26.1245 8.29655C26.4236 8.59528 26.6406 8.8382 26.778 9.02132C26.8258 9.08503 26.8572 9.13255 26.8767 9.16498C26.9852 10.7948 27.2496 14.7791 26.3719 19.2371C26.1475 20.3774 25.7303 21.0875 25.1279 21.5714C24.5005 22.0755 23.5539 22.4301 22.0887 22.6131C21.7241 22.6586 21.3613 22.7001 21 22.7376V21.6561V21.342V21.0182V20.3502V16.1139C21 15.2884 20.5981 14.546 20.0829 14.0296C19.5678 13.5133 18.826 13.1095 18 13.1095H17.9941H17.9882H17.9823H17.9764H17.9704H17.9644H17.9584H17.9524H17.9463H17.9403H17.9342H17.9281H17.9219H17.9158H17.9096H17.9034H17.8972H17.8909H17.8846H17.8783H17.872H17.8657H17.8594H17.853H17.8466H17.8402H17.8337H17.8273H17.8208H17.8143H17.8078H17.8013H17.7947H17.7881H17.7815H17.7749H17.7683H17.7616H17.755H17.7483H17.7415H17.7348H17.7281H17.7213H17.7145H17.7077H17.7009H17.694H17.6872H17.6803H17.6734H17.6665H17.6595H17.6526H17.6456H17.6386H17.6316H17.6246H17.6175H17.6105H17.6034H17.5963H17.5892H17.582H17.5749H17.5677H17.5605H17.5533H17.5461H17.5389H17.5316H17.5244H17.5171H17.5098H17.5025H17.4951H17.4878H17.4804H17.473H17.4656H17.4582H17.4508H17.4433H17.4359H17.4284H17.4209H17.4134H17.4059H17.3984H17.3908H17.3833H17.3757H17.3681H17.3605H17.3528H17.3452H17.3376H17.3299H17.3222H17.3145H17.3068H17.2991H17.2914H17.2836H17.2758H17.2681H17.2603H17.2525H17.2447H17.2368H17.229H17.2211H17.2133H17.2054H17.1975H17.1896H17.1817H17.1737H17.1658H17.1578H17.1499H17.1419H17.1339H17.1259H17.1179H17.1098H17.1018H17.0937H17.0857H17.0776H17.0695H17.0614H17.0533H17.0452H17.0371H17.0289H17.0208H17.0126H17.0044H16.9963H16.9881H16.9799H16.9717H16.9634H16.9552H16.947H16.9387H16.9304H16.9222H16.9139H16.9056H16.8973H16.889H16.8807H16.8723H16.864H16.8557H16.8473H16.8389H16.8306H16.8222H16.8138H16.8054H16.797H16.7886H16.7801H16.7717H16.7633H16.7548H16.7464H16.7379H16.7294H16.721H16.7125H16.704H16.6955H16.687H16.6785H16.6699H16.6614H16.6529H16.6443H16.6358H16.6272H16.6187H16.6101H16.6015H16.593H16.5844H16.5758H16.5672H16.5586H16.55H16.5414H16.5327H16.5241H16.5155H16.5069H16.4982H16.4896H16.4809H16.4723H16.4636H16.4549H16.4463H16.4376H16.4289H16.4202H16.4115H16.4028H16.3941H16.3854H16.3767H16.368H16.3593H16.3506H16.3419H16.3332H16.3244H16.3157H16.307H16.2982H16.2895H16.2808H16.272H16.2633H16.2545H16.2458H16.237H16.2282H16.2195H16.2107H16.202H16.1932H16.1844H16.1757H16.1669H16.1581H16.1493H16.1406H16.1318H16.123H16.1142H16.1054H16.0967H16.0879H16.0791H16.0703H16.0615H16.0527H16.0439H16.0351H16.0264H16.0176H16.0088H16H15.9912H15.9824H15.9736H15.9648H15.9561H15.9473H15.9385H15.9297H15.9209H15.9121H15.9033H15.8946H15.8858H15.877H15.8682H15.8594H15.8507H15.8419H15.8331H15.8243H15.8156H15.8068H15.798H15.7893H15.7805H15.7717H15.763H15.7542H15.7455H15.7367H15.728H15.7192H15.7105H15.7018H15.693H15.6843H15.6756H15.6668H15.6581H15.6494H15.6407H15.632H15.6232H15.6145H15.6058H15.5971H15.5885H15.5798H15.5711H15.5624H15.5537H15.5451H15.5364H15.5277H15.5191H15.5104H15.5018H15.4931H15.4845H15.4759H15.4672H15.4586H15.45H15.4414H15.4328H15.4242H15.4156H15.407H15.3984H15.3899H15.3813H15.3727H15.3642H15.3556H15.3471H15.3386H15.33H15.3215H15.313H15.3045H15.296H15.2875H15.279H15.2705H15.2621H15.2536H15.2452H15.2367H15.2283H15.2198H15.2114H15.203H15.1946H15.1862H15.1778H15.1694H15.1611H15.1527H15.1443H15.136H15.1277H15.1193H15.111H15.1027H15.0944H15.0861H15.0778H15.0695H15.0613H15.053H15.0448H15.0366H15.0283H15.0201H15.0119H15.0037H14.9955H14.9874H14.9792H14.9711H14.9629H14.9548H14.9467H14.9386H14.9305H14.9224H14.9143H14.9062H14.8982H14.8902H14.8821H14.8741H14.8661H14.8581H14.8501H14.8422H14.8342H14.8263H14.8183H14.8104H14.8025H14.7946H14.7867H14.7789H14.771H14.7632H14.7553H14.7475H14.7397H14.7319H14.7242H14.7164H14.7086H14.7009H14.6932H14.6855H14.6778H14.6701H14.6624H14.6548H14.6471H14.6395H14.6319H14.6243H14.6167H14.6092H14.6016H14.5941H14.5866H14.5791H14.5716H14.5641H14.5566H14.5492H14.5418H14.5344H14.527H14.5196H14.5122H14.5049H14.4975H14.4902H14.4829H14.4756H14.4684H14.4611H14.4539H14.4467H14.4395H14.4323H14.4251H14.418H14.4108H14.4037H14.3966H14.3895H14.3825H14.3754H14.3684H14.3614H14.3544H14.3474H14.3405H14.3335H14.3266H14.3197H14.3128H14.306H14.2991H14.2923H14.2855H14.2787H14.2719H14.2652H14.2584H14.2517H14.245H14.2384H14.2317H14.2251H14.2185H14.2119H14.2053H14.1987H14.1922H14.1857H14.1792H14.1727H14.1662H14.1598H14.1534H14.147H14.1406H14.1343H14.128H14.1216H14.1154H14.1091H14.1028H14.0966H14.0904H14.0842H14.0781H14.0719H14.0658H14.0597H14.0536H14.0476H14.0416H14.0356H14.0296H14.0236H14.0177H14.0118H14.0059H14C13.174 13.1095 12.4322 13.5133 11.9171 14.0296C11.4019 14.546 11 15.2884 11 16.1139V16.1199V16.1259V16.1321V16.1385V16.1449V16.1515V16.1582V16.1651V16.172V16.1791V16.1863V16.1937V16.2011V16.2087V16.2164V16.2242V16.2322V16.2403V16.2485V16.2568V16.2652V16.2738V16.2825V16.2912V16.3002V16.3092V16.3183V16.3276V16.337V16.3464V16.356V16.3658V16.3756V16.3855V16.3956V16.4057V16.416V16.4264V16.4369V16.4475V16.4582V16.469V16.48V16.491V16.5021V16.5134V16.5247V16.5362V16.5477V16.5594V16.5712V16.583V16.595V16.6071V16.6193V16.6315V16.6439V16.6564V16.6689V16.6816V16.6944V16.7072V16.7202V16.7333V16.7464V16.7596V16.773V16.7864V16.7999V16.8136V16.8273V16.8411V16.855V16.8689V16.883V16.8972V16.9114V16.9258V16.9402V16.9547V16.9693V16.984V16.9987V17.0136V17.0285V17.0436V17.0587V17.0738V17.0891V17.1045V17.1199V17.1354V17.151V17.1667V17.1824V17.1982V17.2141V17.2301V17.2462V17.2623V17.2785V17.2948V17.3111V17.3276V17.3441V17.3606V17.3773V17.394V17.4108V17.4277V17.4446V17.4616V17.4786V17.4958V17.513V17.5303V17.5476V17.565V17.5825V17.6V17.6176V17.6352V17.653V17.6707V17.6886V17.7065V17.7245V17.7425V17.7606V17.7787V17.7969V17.8152V17.8335V17.8519V17.8703V17.8888V17.9073V17.9259V17.9446V17.9633V17.9821V18.0009V18.0197V18.0386V18.0576V18.0766V18.0957V18.1148V18.134V18.1532V18.1724V18.1917V18.2111V18.2305V18.2499V18.2694V18.2889V18.3085V18.3281V18.3478V18.3675V18.3872V18.407V18.4268V18.4467V18.4666V18.4866V18.5065V18.5266V18.5466V18.5667V18.5868V18.607V18.6272V18.6474V18.6677V18.688V18.7083V18.7287V18.749V18.7695V18.7899V18.8104V18.8309V18.8514V18.872V18.8926V18.9132V18.9339V18.9546V18.9753V18.996V19.0167V19.0375V19.0583V19.0791V19.0999V19.1208V19.1417V19.1626V19.1835V19.2044V19.2254V19.2464V19.2674V19.2884V19.3094V19.3305V19.3515V19.3726V19.3937V19.4148V19.4359V19.457V19.4781V19.4993V19.5205V19.5416V19.5628V19.584V19.6052V19.6264V19.6476V19.6688V19.69V19.7113V19.7325V19.7538V19.775V19.7962V19.8175V19.8388V19.86V19.8813V19.9025V19.9238V19.945V19.9663V19.9876V20.0088V20.0301V20.0513V20.0725V20.0938V20.115V20.1362V20.1575V20.1787V20.1999V20.2211V20.2423V20.2635V20.2847V20.3058V20.327V20.3481V20.3693V20.3904V20.4115V20.4326V20.4537V20.4747V20.4958V20.5168V20.5379V20.5589V20.5798V20.6008V20.6218V20.6427V20.6636V20.6845V20.7054V20.7262V20.7471V20.7679V20.7887V20.8094V20.8302V20.8509V20.8716V20.8923V20.9129V20.9335V20.9541V20.9747V20.9952V21.0157V21.0362V21.0566V21.077V21.0974V21.1178V21.1381V21.1584V21.1786V21.1988V21.219V21.2392V21.2593V21.2794V21.2994V21.3194V21.3394V21.3593V21.3792V21.399V21.4189V21.4386V21.4584V21.4781V21.4977V21.5173V21.5369V21.5564V21.5759V21.5953V21.6147V21.634V21.6533V21.6725V21.6917V21.7109V21.73V21.749V21.768V21.787V21.8059V21.8247V21.8435V21.8623V21.881V21.8996V21.9182V21.9367V21.9552V21.9736V21.992V22.0103V22.0285V22.0467V22.0648V22.0829V22.1009V22.1189V22.1367V22.1546V22.1723V22.19V22.2077V22.2252V22.2428V22.2602V22.2776V22.2949V22.3121V22.3293V22.3464V22.3635V22.3805V22.3974V22.4142V22.431V22.4477V22.4643V22.4809V22.4973V22.5137V22.5301V22.5463V22.5625V22.5786V22.5947V22.6106V22.6265V22.6423V22.658V22.6737V22.6892V22.7047V22.7201ZM5.18016 9.25341C5.18007 9.25344 5.18083 9.25163 5.1827 9.2479C5.18118 9.25152 5.18025 9.25338 5.18016 9.25341ZM26.9016 9.2113C26.9014 9.21125 26.9003 9.20897 26.8986 9.20458C26.9008 9.20915 26.9017 9.21135 26.9016 9.2113Z" stroke="#F9F9F9" stroke-width="2" stroke-linecap="round" stroke-linejoin="round"/>
</g>
<defs>
<filter id="filter0_d_54_65" x="0" y="0" width="32" height="32" filterUnits="userSpaceOnUse" color-interpolation-filters="sRGB">
<feFlood flood-opacity="0" result="BackgroundImageFix"/>
<feColorMatrix in="SourceAlpha" type="matrix" values="0 0 0 0 0 0 0 0 0 0 0 0 0 0 0 0 0 0 127 0" result="hardAlpha"/>
<feOffset dy="4"/>
<feGaussianBlur stdDeviation="2"/>
<feComposite in2="hardAlpha" operator="out"/>
<feColorMatrix type="matrix" values="0 0 0 0 0 0 0 0 0 0 0 0 0 0 0 0 0 0 0.25 0"/>
<feBlend mode="normal" in2="BackgroundImageFix" result="effect1_dropShadow_54_65"/>
<feBlend mode="normal" in="SourceGraphic" in2="effect1_dropShadow_54_65" result="shape"/>
</filter>
</defs>
</svg>
