<svg width="56" height="56" viewBox="0 0 56 56" fill="none" xmlns="http://www.w3.org/2000/svg">
<rect width="56" height="56" rx="15" fill="#F9F9F9" fill-opacity="0.2"/>
<path d="M24.4 40.3913C26.2 42.1304 29.8 42.1304 31.6 40.3913" stroke="#F9F9F9" stroke-width="2" stroke-linecap="round" stroke-linejoin="round"/>
<path fill-rule="evenodd" clip-rule="evenodd" d="M29.1984 14.3723C29.1995 14.3498 29.2 14.3271 29.2 14.3043C29.2 13.584 28.6627 13 28 13C27.3373 13 26.8 13.584 26.8 14.3043C26.8 14.3271 26.8005 14.3498 26.8016 14.3723C22.7844 15.0017 19.0044 19.9124 19.6001 25.3913C19.9086 27.0679 18.9372 27.9562 17.9262 28.8807C16.9709 29.7543 15.9801 30.6603 16.0003 32.2945C16.0003 34.5849 17.2 35.8261 18.962 36.4416C18.962 36.4416 22.1889 37.7826 28.0001 37.7826C33.8114 37.7826 37.0383 36.4416 37.0383 36.4416C38.8002 35.8261 40.0003 34.5217 40 32.2945C39.9998 30.6462 39.0096 29.7399 38.0596 28.8703C37.0531 27.9489 36.0916 27.0688 36.4002 25.3913C36.5073 24.4062 36.473 23.4396 36.3212 22.5128C35.7956 22.9953 35.1411 23.317 34.4218 23.4082C34.4757 23.9649 34.477 24.5356 34.4185 25.1132C34.206 26.37 34.4473 27.4515 34.9782 28.3696C35.4574 29.198 36.1444 29.8279 36.6054 30.2505L36.6233 30.2669C37.6914 31.2462 37.9999 31.5956 38 32.2947C38.0001 33.0313 37.8092 33.4721 37.5903 33.7589C37.3598 34.0607 36.9813 34.343 36.3787 34.5535L36.3242 34.5726L36.2782 34.5917L36.2777 34.5919L36.2707 34.5947C36.2584 34.5995 36.2339 34.609 36.1973 34.6224C36.1241 34.6494 36.0028 34.6923 35.8344 34.7461C35.4978 34.8537 34.9734 35.0047 34.2712 35.1583C32.8673 35.4653 30.7512 35.7826 28.0001 35.7826C25.2491 35.7826 23.133 35.4653 21.7291 35.1583C21.0269 35.0047 20.5025 34.8537 20.1659 34.7461C19.9975 34.6923 19.8762 34.6494 19.803 34.6224C19.7664 34.609 19.7419 34.5995 19.7296 34.5947L19.7226 34.5919L19.7221 34.5917L19.6761 34.5726L19.6216 34.5535C18.9959 34.335 18.6241 34.0596 18.4033 33.7737C18.1965 33.506 18.0003 33.0732 18.0003 32.2945V32.2821L18.0002 32.2698C17.9919 31.6062 18.2793 31.2695 19.3605 30.2792L19.3789 30.2624C19.8422 29.8381 20.5316 29.2067 21.0135 28.3784C21.5476 27.4606 21.7952 26.3757 21.5818 25.1133C21.3427 22.7549 22.1017 20.5125 23.363 18.8603C24.662 17.1587 26.304 16.3043 27.6629 16.3043H28.3374C29.1802 16.3043 30.132 16.633 31.0433 17.2887C31.4223 16.697 31.9477 16.2245 32.5625 15.9331C31.5308 15.1079 30.3747 14.5565 29.1984 14.3723Z" fill="#F9F9F9"/>
<ellipse cx="34" cy="19.5217" rx="2.4" ry="2.6087" fill="#00B9AE"/>
</svg>
